<?xml version="1.0" encoding="UTF-8" standalone="no"?>
<svg
   width="1024pt"
   height="1024pt"
   viewBox="0 0 1024 1024"
   version="1.1"
   id="svg98"
   sodipodi:docname="logo.svg"
   inkscape:version="1.4 (e7c3feb100, 2024-10-09)"
   inkscape:export-filename="logo.png"
   inkscape:export-xdpi="7.03125"
   inkscape:export-ydpi="7.03125"
   xmlns:inkscape="http://www.inkscape.org/namespaces/inkscape"
   xmlns:sodipodi="http://sodipodi.sourceforge.net/DTD/sodipodi-0.dtd"
   xmlns="http://www.w3.org/2000/svg"
   xmlns:svg="http://www.w3.org/2000/svg">
  <defs
     id="defs98">
    <filter
       inkscape:collect="always"
       style="color-interpolation-filters:sRGB"
       id="filter104"
       x="-0.022492931"
       y="-0.0067644368"
       width="1.0449859"
       height="1.0135289">
      <feGaussianBlur
         inkscape:collect="always"
         stdDeviation="0.68375709"
         id="feGaussianBlur104" />
    </filter>
    <filter
       inkscape:collect="always"
       style="color-interpolation-filters:sRGB"
       id="filter105"
       x="-0.0011656985"
       y="-0.0038321701"
       width="1.0023314"
       height="1.0076643">
      <feGaussianBlur
         inkscape:collect="always"
         stdDeviation="0.074318135"
         id="feGaussianBlur105" />
    </filter>
    <filter
       inkscape:collect="always"
       style="color-interpolation-filters:sRGB"
       id="filter106"
       x="-0.0014224443"
       y="-0.0014419591"
       width="1.0028449"
       height="1.0028839">
      <feGaussianBlur
         inkscape:collect="always"
         stdDeviation="0.18338864"
         id="feGaussianBlur106" />
    </filter>
    <filter
       inkscape:collect="always"
       style="color-interpolation-filters:sRGB"
       id="filter107"
       x="-0.00074310859"
       y="-0.0072199626"
       width="1.0014862"
       height="1.0144399">
      <feGaussianBlur
         inkscape:collect="always"
         stdDeviation="0.015016986"
         id="feGaussianBlur107" />
    </filter>
    <filter
       inkscape:collect="always"
       style="color-interpolation-filters:sRGB"
       id="filter108"
       x="-0.13570005"
       y="-0.13767222"
       width="1.2714001"
       height="1.2753444">
      <feGaussianBlur
         inkscape:collect="always"
         stdDeviation="1.0262316"
         id="feGaussianBlur108" />
    </filter>
    <filter
       inkscape:collect="always"
       style="color-interpolation-filters:sRGB"
       id="filter109"
       x="-0.0081916859"
       y="-0.0067704645"
       width="1.0163834"
       height="1.0135409">
      <feGaussianBlur
         inkscape:collect="always"
         stdDeviation="0.25267938"
         id="feGaussianBlur109" />
    </filter>
  </defs>
  <sodipodi:namedview
     id="namedview98"
     pagecolor="#ffffff"
     bordercolor="#cccccc"
     borderopacity="1"
     inkscape:showpageshadow="0"
     inkscape:pageopacity="1"
     inkscape:pagecheckerboard="0"
     inkscape:deskcolor="#d1d1d1"
     inkscape:document-units="pt"
     showguides="true"
     inkscape:zoom="0.21881295"
     inkscape:cx="459.2964"
     inkscape:cy="509.56765"
     inkscape:window-width="1920"
     inkscape:window-height="1054"
     inkscape:window-x="0"
     inkscape:window-y="26"
     inkscape:window-maximized="1"
     inkscape:current-layer="svg98">
    <sodipodi:guide
       position="208.93311,199.30428"
       orientation="0,-1"
       id="guide99"
       inkscape:locked="false" />
  </sodipodi:namedview>
  <rect
     style="fill:#acb0b8;fill-opacity:1;stroke-width:1.60922;stroke-linecap:round;stroke-linejoin:round"
     id="rect99"
     width="1020.3645"
     height="1022.788"
     x="2.4236655"
     y="-2.7686163e-05"
     ry="2.1453085" />
  <g
     id="#acb0b8ff">
    <path
       fill="#acb0b8"
       opacity="1.00"
       d=" M 436.92 230.63 C 439.26 231.75 442.27 232.07 443.96 234.20 C 444.93 236.80 445.05 239.68 445.06 242.43 C 443.51 246.24 441.26 249.99 441.40 254.25 C 441.45 261.03 442.56 267.89 440.88 274.58 C 440.22 269.39 439.48 264.21 438.98 259.00 C 438.15 249.55 436.29 240.15 436.92 230.63 Z"
       id="path2" />
    <path
       fill="#acb0b8"
       opacity="1.00"
       d=" M 453.26 351.93 C 454.42 355.47 455.31 359.08 456.28 362.67 C 457.31 362.99 458.35 363.31 459.39 363.64 C 459.69 370.09 460.02 376.57 460.96 382.96 C 463.37 391.95 465.34 401.07 466.40 410.33 C 468.09 417.09 467.22 424.09 468.08 430.95 C 468.48 433.78 467.42 436.50 466.53 439.13 C 466.32 438.53 465.89 437.33 465.67 436.73 C 466.53 427.63 464.78 418.55 463.48 409.58 C 461.83 400.30 460.99 390.85 458.30 381.80 C 455.45 372.52 454.82 362.79 452.71 353.36 L 453.26 351.93 Z"
       id="path3" />
    <path
       fill="#acb0b8"
       opacity="1.00"
       d=" M 408.25 463.19 C 410.70 466.70 413.41 470.08 415.15 474.02 C 414.87 475.34 414.59 476.67 414.33 478.01 C 411.98 473.20 409.31 468.49 408.25 463.19 Z"
       id="path4" />
    <path
       fill="#acb0b8"
       opacity="1.00"
       d=" M 551.35 528.17 C 555.76 524.73 559.35 520.37 563.70 516.86 C 564.05 517.54 564.76 518.89 565.12 519.57 C 559.32 526.52 553.15 533.16 547.49 540.22 C 545.54 540.36 543.61 540.42 541.68 540.50 C 544.47 536.10 546.94 531.20 551.35 528.17 Z"
       id="path6" />
    <path
       fill="#acb0b8"
       opacity="1.00"
       d=" M 573.02 575.06 C 578.16 575.17 582.92 572.95 587.44 570.75 C 587.47 572.00 587.51 573.27 587.56 574.53 C 584.62 574.69 581.72 575.19 578.92 576.07 C 570.88 576.87 562.71 576.25 554.67 575.56 C 560.77 574.99 566.89 575.02 573.02 575.06 Z"
       id="path8" />
    <path
       fill="#acb0b8"
       opacity="1.00"
       d=" M 393.41 715.21 C 393.86 712.68 394.46 710.19 395.03 707.70 C 395.00 710.31 394.98 712.93 394.80 715.55 C 392.03 723.30 392.92 731.63 392.68 739.70 C 391.21 738.49 389.17 737.61 388.64 735.63 C 387.33 731.45 384.68 727.52 385.10 722.98 C 385.14 719.96 386.07 717.02 387.38 714.33 C 388.28 712.17 390.84 711.64 392.65 710.48 C 392.90 712.05 393.17 713.62 393.41 715.21 Z"
       id="path9" />
  </g>
  <g
     id="#bac5d0ff">
    <path
       fill="#bac5d0"
       opacity="1.00"
       d=" M 1022.88 0.00 L 1024.00 0.00 L 1024.00 1024.00 L 1022.50 1024.00 C 1023.03 1002.99 1022.58 981.97 1022.67 960.97 C 1022.68 907.33 1023.02 853.71 1022.69 800.08 C 1023.15 749.06 1022.46 698.03 1022.93 647.01 C 1022.50 622.98 1023.50 598.96 1022.94 574.94 C 1022.91 508.61 1023.02 442.28 1022.75 375.95 C 1023.06 358.30 1023.07 340.65 1022.96 322.99 C 1022.42 289.34 1023.44 255.68 1022.76 222.02 C 1023.19 148.02 1022.54 74.00 1022.88 0.00 Z"
       id="path10" />
    <path
       fill="#bac5d0"
       opacity="1.00"
       d=" M 488.77 137.59 C 496.06 136.25 503.55 137.07 510.89 137.44 C 511.31 137.77 512.16 138.42 512.58 138.74 C 505.48 138.42 498.37 138.23 491.28 138.60 C 490.65 138.35 489.40 137.84 488.77 137.59 Z"
       id="path11" />
    <path
       fill="#bac5d0"
       opacity="1.00"
       d=" M 522.03 207.39 C 528.70 209.51 534.40 213.89 539.07 219.02 C 543.15 223.53 545.55 229.19 548.41 234.48 C 549.69 236.41 548.78 238.73 548.46 240.81 C 544.84 258.42 542.02 276.18 539.99 294.05 C 535.84 317.87 533.12 341.92 529.59 365.84 C 527.62 378.17 526.41 390.61 524.27 402.91 C 520.73 422.15 519.12 441.66 516.12 460.98 C 513.78 477.65 511.54 494.34 509.79 511.08 C 507.84 526.10 505.44 541.15 505.61 556.34 C 503.83 539.24 501.80 522.17 499.27 505.16 C 499.13 503.76 498.72 502.33 499.03 500.94 C 503.13 492.16 501.61 482.26 502.13 472.90 C 502.90 455.93 504.93 439.03 505.03 422.03 C 505.72 402.02 505.32 381.98 506.27 361.97 C 507.48 335.14 507.39 308.25 509.57 281.47 C 510.38 271.94 511.91 262.49 512.80 252.97 C 514.76 237.61 516.06 221.85 522.03 207.39 Z"
       id="path12" />
    <path
       fill="#bac5d0"
       opacity="1.00"
       d=" M 603.22 236.57 C 606.07 239.14 609.01 241.76 610.86 245.19 C 613.61 250.23 614.69 255.94 616.70 261.28 C 617.29 263.45 618.59 265.73 617.78 268.03 C 611.15 288.53 603.28 308.58 596.17 328.91 C 588.10 350.25 579.63 371.45 572.31 393.07 C 568.42 403.08 565.04 413.27 561.44 423.39 C 555.70 440.29 548.76 456.77 543.82 473.94 C 541.53 480.96 538.60 487.78 536.66 494.92 C 532.91 510.98 529.14 527.10 523.47 542.61 C 521.01 549.66 520.00 557.12 517.38 564.12 C 517.88 558.41 518.47 552.69 519.57 547.06 C 523.24 529.20 525.51 511.10 528.28 493.09 C 528.71 493.17 529.57 493.34 530.00 493.42 C 532.65 483.73 534.17 473.79 536.11 463.95 C 539.33 447.34 545.54 431.51 548.96 414.96 C 552.63 399.81 557.24 384.91 562.17 370.13 C 566.14 355.87 571.63 342.10 575.85 327.92 C 579.10 318.79 581.25 309.33 583.97 300.04 C 587.52 287.90 590.96 275.73 594.59 263.61 C 597.14 254.50 599.34 245.24 603.22 236.57 Z"
       id="path13" />
    <path
       fill="#bac5d0"
       opacity="1.00"
       d=" M 441.40 254.25 C 441.26 249.99 443.51 246.24 445.06 242.43 C 449.05 268.57 453.55 294.66 456.07 321.00 C 457.03 333.23 459.61 345.25 460.74 357.45 C 462.31 371.88 465.89 386.00 467.37 400.45 C 468.57 409.68 470.35 418.83 471.97 428.00 C 473.20 436.63 473.91 445.36 475.83 453.88 C 477.90 463.45 478.32 473.26 479.84 482.91 C 484.01 508.75 487.87 534.63 492.89 560.32 C 484.97 541.51 482.33 520.99 474.94 502.00 C 472.54 495.47 471.24 488.60 468.65 482.14 C 467.60 478.54 465.63 475.05 465.35 471.32 C 465.94 469.23 466.88 467.19 466.71 464.97 C 466.68 455.53 463.48 446.15 465.67 436.73 C 465.89 437.33 466.32 438.53 466.53 439.13 C 467.42 436.50 468.48 433.78 468.08 430.95 C 467.22 424.09 468.09 417.09 466.40 410.33 C 465.34 401.07 463.37 391.95 460.96 382.96 C 460.02 376.57 459.69 370.09 459.39 363.64 C 458.35 363.31 457.31 362.99 456.28 362.67 C 455.31 359.08 454.42 355.47 453.26 351.93 L 452.71 353.36 C 446.28 327.55 442.04 301.16 440.88 274.58 C 442.56 267.89 441.45 261.03 441.40 254.25 Z"
       id="path14" />
    <path
       fill="#bac5d0"
       opacity="1.00"
       d=" M 736.73 270.10 C 737.13 268.25 738.86 269.88 739.38 270.62 C 743.45 276.34 744.36 284.50 750.50 288.63 C 750.43 289.67 750.37 290.71 750.32 291.75 C 751.05 293.34 751.79 294.92 752.54 296.50 C 753.25 296.43 753.97 296.36 754.70 296.30 C 754.51 297.60 754.34 298.91 754.17 300.23 C 755.33 300.79 757.03 300.87 757.52 302.31 C 757.89 305.19 757.24 308.18 758.17 311.00 C 764.51 329.17 769.94 347.82 771.85 367.04 C 771.95 369.59 773.27 372.65 771.09 374.63 C 770.80 372.42 770.45 370.22 770.15 368.02 C 767.76 346.16 761.30 324.98 753.87 304.37 C 748.58 292.75 743.07 281.20 736.73 270.10 Z"
       id="path15" />
    <path
       fill="#bac5d0"
       opacity="1.00"
       d=" M 651.64 297.65 C 654.73 291.95 655.98 285.39 659.82 280.08 C 666.97 288.00 671.22 299.68 667.42 310.10 C 663.52 319.54 657.71 328.00 653.01 337.03 C 649.26 344.37 644.24 350.94 640.01 357.99 C 631.60 372.20 622.93 386.24 614.47 400.40 C 607.53 413.03 600.15 425.41 592.49 437.60 C 589.92 442.54 586.96 447.25 583.98 451.95 C 580.11 458.74 576.32 465.59 572.37 472.34 C 567.44 480.49 563.28 489.08 557.97 496.99 C 554.53 502.64 549.67 507.63 548.29 514.31 C 548.34 508.78 550.88 503.76 552.34 498.54 C 554.17 491.94 556.90 485.66 559.02 479.16 L 559.20 479.07 C 559.68 478.82 560.64 478.31 561.12 478.06 C 566.69 468.49 569.36 457.59 574.83 447.98 C 580.56 435.29 587.09 422.98 593.63 410.69 C 600.22 396.02 608.75 382.36 615.87 367.96 C 621.18 357.09 627.54 346.78 633.04 336.01 C 636.63 329.83 639.34 323.20 642.82 316.96 C 646.25 310.75 648.27 303.89 651.64 297.65 Z"
       id="path16" />
    <path
       fill="#bac5d0"
       opacity="1.00"
       d=" M 253.46 310.93 C 253.75 311.35 254.34 312.19 254.63 312.61 C 248.04 331.54 242.58 351.04 240.66 371.06 C 238.59 388.33 237.84 405.87 239.90 423.17 C 238.77 422.66 237.64 422.14 236.51 421.64 C 238.85 417.96 237.46 413.63 236.87 409.67 C 235.87 402.43 237.06 395.15 236.65 387.89 C 236.68 384.23 236.19 380.35 238.08 377.02 C 240.65 368.83 239.21 359.95 241.73 351.73 C 244.93 337.95 248.15 324.09 253.46 310.93 Z"
       id="path17" />
    <path
       fill="#bac5d0"
       opacity="1.00"
       d=" M 695.81 332.81 C 700.74 341.35 702.29 351.92 699.62 361.46 C 697.82 367.09 694.15 371.88 690.30 376.27 C 682.21 385.52 674.56 395.18 665.84 403.86 C 653.92 416.01 643.51 429.50 632.28 442.26 C 624.84 451.17 617.24 459.94 609.75 468.80 C 603.33 476.69 596.05 483.82 589.78 491.83 C 581.69 501.19 574.06 510.99 565.12 519.57 C 564.76 518.89 564.05 517.54 563.70 516.86 C 566.78 514.10 568.67 510.36 570.96 506.98 C 574.32 501.48 577.87 496.11 581.19 490.59 L 581.36 490.51 C 581.70 490.35 582.38 490.01 582.72 489.85 C 593.56 477.91 600.35 463.07 610.37 450.50 C 617.44 441.80 624.95 433.36 630.56 423.60 C 635.53 415.11 643.62 409.06 648.93 400.82 C 654.24 392.65 660.33 385.06 666.46 377.52 C 672.55 368.66 679.47 360.40 685.20 351.29 C 688.90 345.23 693.37 339.56 695.81 332.81 Z"
       id="path18" />
    <path
       fill="#bac5d0"
       opacity="1.00"
       d=" M 405.55 359.82 C 406.35 359.52 407.16 359.23 407.98 358.94 C 412.37 372.10 417.21 385.11 422.30 398.01 C 424.80 405.74 427.22 413.50 430.03 421.12 C 429.07 420.84 428.10 420.61 427.14 420.38 C 425.34 415.74 423.68 411.02 421.25 406.66 C 418.46 401.73 417.57 396.03 415.25 390.90 C 412.88 385.49 410.93 379.88 409.98 374.05 C 409.22 369.11 407.92 364.24 405.55 359.82 Z"
       id="path19" />
    <path
       fill="#bac5d0"
       opacity="1.00"
       d=" M 688.36 423.32 C 696.26 416.17 702.31 407.31 709.74 399.70 C 711.73 410.00 710.79 420.98 706.82 430.71 C 701.99 442.12 692.20 450.23 682.77 457.79 C 669.81 467.63 655.91 476.17 643.04 486.13 C 629.13 495.83 615.48 505.90 601.67 515.74 C 591.69 523.43 581.46 530.80 571.02 537.87 C 572.00 536.27 573.02 534.69 574.34 533.35 C 580.23 527.34 586.07 521.28 592.03 515.34 L 592.30 515.26 C 592.64 515.15 593.32 514.93 593.66 514.82 C 598.96 511.40 602.03 505.78 606.10 501.17 C 622.10 487.17 636.70 471.71 651.80 456.77 C 657.08 451.66 663.39 447.74 668.55 442.49 C 675.51 436.47 681.44 429.38 688.36 423.32 Z"
       id="path20" />
    <path
       fill="#bac5d0"
       opacity="1.00"
       d=" M 301.69 413.90 C 307.11 415.98 312.24 418.77 316.97 422.14 C 324.78 427.90 332.62 433.64 340.10 439.84 C 346.13 444.45 351.32 450.03 357.28 454.73 C 365.64 461.74 374.28 468.40 382.76 475.27 C 384.96 477.15 387.11 479.17 389.73 480.47 L 389.97 480.61 C 393.30 483.76 395.84 487.62 398.80 491.10 C 406.47 500.15 414.16 509.19 421.73 518.33 C 428.68 526.10 436.36 533.18 443.23 541.03 C 429.10 531.21 416.26 519.64 401.99 509.98 C 393.78 504.65 385.64 499.17 378.00 493.03 C 370.94 488.13 363.87 483.23 357.16 477.85 C 350.37 472.21 342.85 467.55 335.82 462.24 C 328.28 456.45 319.82 451.56 313.85 444.00 C 310.06 439.34 305.87 434.57 304.33 428.63 C 303.94 423.63 302.22 418.87 301.69 413.90 Z"
       id="path21" />
    <path
       fill="#bac5d0"
       opacity="1.00"
       d=" M 371.50 421.44 C 377.94 425.11 383.20 430.44 388.06 435.96 C 395.34 444.61 402.02 453.76 408.25 463.19 C 409.31 468.49 411.98 473.20 414.33 478.01 C 414.59 476.67 414.87 475.34 415.15 474.02 C 415.73 472.44 416.41 470.91 417.09 469.38 C 422.82 479.40 429.86 488.64 435.19 498.89 C 437.13 502.48 439.32 505.93 441.22 509.55 C 440.12 510.03 439.02 510.52 437.92 511.01 C 431.66 502.73 423.98 495.66 417.67 487.44 C 406.63 474.48 395.38 461.71 384.05 449.02 C 378.42 442.04 372.58 434.97 367.19 427.95 C 368.52 425.71 370.01 423.57 371.50 421.44 Z"
       id="path22"
       style="filter:url(#filter109)" />
    <path
       fill="#bac5d0"
       opacity="1.00"
       d=" M 432.28 447.66 C 433.79 450.25 435.34 452.81 436.93 455.37 C 438.22 454.26 439.52 453.15 440.83 452.05 L 440.99 451.90 C 445.58 465.74 450.57 479.44 455.65 493.11 C 458.48 502.79 462.53 512.18 463.79 522.26 C 458.11 506.05 449.64 491.01 440.50 476.53 C 437.75 471.69 434.43 467.09 432.32 461.94 C 432.51 457.18 432.64 452.41 432.28 447.66 Z"
       id="path23" />
    <path
       fill="#bac5d0"
       opacity="1.00"
       d=" M 541.68 540.50 C 543.61 540.42 545.54 540.36 547.49 540.22 C 545.06 543.26 542.50 546.21 540.38 549.48 C 538.33 552.39 536.81 555.88 533.58 557.74 C 536.05 551.88 538.84 546.18 541.68 540.50 Z"
       id="path25" />
    <path
       fill="#bac5d0"
       opacity="1.00"
       d=" M 431.03 574.11 C 439.34 573.20 447.62 571.90 455.99 571.69 C 460.75 571.47 464.98 574.00 469.48 575.14 C 459.03 576.74 448.43 576.12 437.90 576.45 C 432.26 576.53 426.60 576.99 420.98 576.27 C 424.22 575.11 427.61 574.44 431.03 574.11 Z"
       id="path26"
       style="filter:url(#filter107)" />
    <path
       fill="#bac5d0"
       opacity="1.00"
       d=" M 323.47 708.01 C 323.50 706.24 323.30 703.69 325.75 703.39 C 325.14 719.15 325.17 734.92 325.04 750.68 C 323.37 749.23 323.61 747.00 323.54 745.03 C 323.63 732.69 323.56 720.35 323.47 708.01 Z"
       id="path33" />
  </g>
  <g
     id="#1b243aff">
    <path
       fill="#1b243a"
       opacity="1.00"
       d=" M 491.28 138.60 C 498.37 138.23 505.48 138.42 512.58 138.74 C 543.74 139.83 575.01 144.71 604.30 155.67 C 628.97 165.73 652.83 178.42 673.50 195.37 C 690.06 209.15 704.86 225.00 718.09 241.99 C 724.63 251.13 731.03 260.40 736.73 270.10 C 743.07 281.20 748.58 292.75 753.87 304.37 C 761.30 324.98 767.76 346.16 770.15 368.02 C 770.45 370.22 770.80 372.42 771.09 374.63 C 774.36 397.98 773.11 421.70 769.21 444.88 C 767.61 455.09 765.59 465.27 762.20 475.06 C 757.59 489.95 751.81 504.53 744.15 518.14 C 723.17 558.66 690.38 592.39 652.34 617.24 C 627.87 631.98 601.56 644.03 573.67 650.62 C 547.20 658.32 519.34 658.87 491.98 658.43 C 477.17 657.73 462.15 656.92 447.90 652.50 C 438.31 650.03 428.38 648.64 419.19 644.79 C 391.34 634.62 364.77 620.80 340.94 603.13 C 327.05 592.47 314.39 580.33 302.48 567.52 C 291.93 555.71 283.47 542.24 275.20 528.78 C 267.59 515.49 261.30 501.49 255.37 487.38 C 247.99 466.60 241.80 445.23 239.90 423.17 C 237.84 405.87 238.59 388.33 240.66 371.06 C 242.58 351.04 248.04 331.54 254.63 312.61 C 262.75 291.06 272.92 270.15 286.32 251.37 C 295.72 236.77 307.54 223.97 319.78 211.74 C 332.22 199.97 345.63 189.21 360.10 180.03 C 368.80 174.93 377.71 170.20 386.74 165.71 C 402.91 157.23 420.33 151.39 438.02 147.03 C 450.28 144.41 462.46 141.24 474.97 140.07 C 480.41 139.63 485.84 139.12 491.28 138.60 M 430.07 167.00 C 411.93 172.57 394.35 180.13 378.04 189.87 C 366.16 197.12 354.29 204.58 343.97 213.98 C 331.87 224.54 320.47 235.96 310.32 248.42 C 287.88 276.62 271.82 309.80 263.34 344.82 C 260.00 361.68 256.72 378.70 256.73 395.96 C 256.37 411.01 257.10 426.13 259.99 440.92 C 263.64 458.16 268.29 475.28 275.49 491.41 C 283.17 510.60 294.05 528.31 306.24 544.93 C 316.47 557.56 328.27 568.84 340.18 579.88 C 346.64 585.50 353.79 590.26 360.60 595.44 C 368.83 601.54 377.95 606.26 386.91 611.19 C 392.66 614.66 398.53 618.01 404.82 620.42 C 412.42 625.93 421.88 627.45 430.48 630.78 C 440.63 634.66 451.53 635.61 462.05 638.03 C 483.46 641.77 505.34 642.47 527.02 641.33 C 537.35 640.31 547.85 639.57 557.83 636.58 C 565.83 636.30 573.51 633.54 581.11 631.20 C 593.75 626.90 606.40 622.43 618.41 616.55 C 625.23 612.61 632.25 609.04 639.08 605.14 C 662.33 590.82 683.44 572.81 700.54 551.50 C 708.43 542.50 714.94 532.44 721.58 522.52 C 726.12 516.05 728.98 508.62 732.71 501.69 C 735.86 494.20 739.83 487.03 742.05 479.18 C 744.89 470.13 748.23 461.20 749.87 451.81 C 752.85 438.05 755.45 424.11 755.66 409.99 C 755.28 400.65 755.81 391.27 754.62 381.98 C 754.00 376.70 753.96 371.28 752.22 366.21 L 752.22 366.61 C 750.84 353.34 747.39 340.40 743.16 327.78 C 737.78 309.36 728.88 292.25 719.48 275.62 C 715.40 268.47 710.42 261.91 705.89 255.06 C 694.32 239.16 680.48 225.01 665.50 212.31 C 652.78 201.27 638.29 192.51 623.60 184.36 C 616.61 180.31 609.01 177.52 601.57 174.47 C 592.43 170.66 583.05 167.43 573.54 164.70 C 564.48 162.53 555.27 161.08 546.12 159.36 C 529.63 156.15 512.75 155.39 495.98 155.82 C 473.58 156.04 451.56 161.03 430.07 167.00 Z"
       id="path45" />
    <path
       fill="#1b243a"
       opacity="1.00"
       d=" M 191.30 690.56 C 203.68 688.80 215.65 693.37 226.85 698.07 L 227.40 698.24 C 223.66 699.29 221.82 702.82 219.71 705.73 C 218.12 707.96 216.84 710.39 215.63 712.85 C 209.45 708.49 201.91 704.35 194.09 706.25 C 190.40 706.99 186.55 710.51 187.44 714.52 C 189.68 718.57 194.68 719.66 198.69 721.24 C 207.45 723.95 217.19 726.47 223.13 734.01 C 229.23 744.13 225.34 757.91 216.27 764.95 C 205.26 772.09 190.91 772.25 179.05 767.21 C 174.43 765.10 170.58 761.66 165.98 759.51 C 166.25 759.28 166.78 758.81 167.05 758.57 C 171.13 755.35 174.04 750.99 176.46 746.46 C 182.91 751.29 190.98 754.56 199.14 753.86 C 202.91 753.48 207.25 751.15 207.58 746.96 C 207.90 742.84 203.65 740.67 200.26 739.82 C 191.73 737.63 182.65 735.98 175.45 730.55 C 169.54 725.87 166.94 717.96 167.84 710.59 C 169.00 703.26 174.22 696.85 180.91 693.79 C 184.21 692.25 187.74 691.28 191.30 690.56 Z"
       id="path49" />
    <path
       fill="#1b243a"
       opacity="1.00"
       d=" M 451.12 690.33 C 451.59 690.33 452.54 690.32 453.02 690.32 C 458.33 690.50 463.65 690.72 468.97 690.43 C 470.22 710.94 469.93 731.48 469.79 752.01 C 479.64 753.04 489.55 752.40 499.43 752.75 C 499.01 758.25 498.96 763.78 499.17 769.31 C 484.00 770.33 468.78 769.86 453.59 769.41 C 452.78 762.14 451.95 754.87 451.52 747.58 C 451.27 728.50 451.71 709.40 451.12 690.33 Z"
       id="path50" />
    <path
       fill="#1b243a"
       opacity="1"
       d="m 241.99,690.72 c 6.04,0.19 12.1,0.35 18.11,-0.27 0,1.91 0.01,3.83 -0.03,5.76 -0.1,8.9 -0.73,17.81 -0.24,26.71 8.95,0.18 17.9,0.04 26.85,0.08 0,-8.25 0.42,-16.51 -0.09,-24.75 5.05,-0.12 10.09,-0.01 15.13,-0.24 0.87,0 2.6,-0.01 3.47,-0.01 -0.32,5.92 -0.15,11.84 -0.19,17.77 0.05,17.28 0.07,34.58 -0.85,51.85 -0.05,0.89 -0.1,1.78 -0.16,2.68 -5.69,-0.07 -11.39,-0.03 -17.06,0.42 0.15,-7.66 0.08,-15.32 0,-22.97 0.06,-2.58 0.03,-5.15 0,-7.72 -8.76,-0.07 -17.53,-0.02 -26.29,-0.03 0.33,8.22 -0.06,16.44 -0.42,24.66 -0.08,1.7 -0.2,3.39 -0.3,5.11 -2.42,0.11 -4.83,0.28 -7.25,0.44 -3.3,0.14 -6.6,0.36 -9.84,0.96 -0.04,-0.28 -0.11,-0.83 -0.14,-1.11 -1.09,-26.08 -0.47,-52.22 -0.69,-78.32 z"
       id="path51"
       sodipodi:nodetypes="cccccccccccccccccccccc" />
    <path
       fill="#1b243a"
       opacity="1.00"
       d=" M 394.99 690.54 C 400.71 690.85 406.44 691.00 412.17 690.90 C 413.44 711.37 411.79 731.88 412.99 752.35 C 421.66 753.53 430.43 752.90 439.15 753.00 C 439.11 758.56 438.77 764.13 439.20 769.69 C 424.43 769.71 409.66 770.23 394.90 770.64 C 394.89 752.28 394.27 733.91 394.80 715.55 C 394.98 712.93 395.00 710.31 395.03 707.70 C 395.14 701.97 395.15 696.25 394.99 690.54 Z"
       id="path52" />
    <path
       fill="#1b243a"
       opacity="1.00"
       d=" M 539.95 690.86 C 546.05 691.13 552.16 691.24 558.26 690.74 C 558.43 702.83 559.13 714.90 558.95 726.99 C 559.09 732.46 558.35 738.24 560.65 743.39 C 562.79 747.38 566.03 751.06 570.32 752.76 C 574.75 753.99 579.77 753.05 583.55 750.45 C 587.35 747.14 589.16 741.93 589.03 736.97 C 588.97 721.76 589.47 706.54 589.08 691.33 C 595.69 691.29 602.31 691.36 608.93 691.53 C 607.09 707.89 608.52 724.41 607.32 740.81 C 606.61 749.52 602.75 758.30 595.72 763.73 C 585.71 771.23 571.57 773.23 560.12 767.96 C 552.56 763.73 545.82 757.35 542.58 749.18 C 540.50 744.06 540.65 738.43 540.60 733.01 C 540.69 719.81 540.36 706.61 539.99 693.42 C 539.98 692.78 539.96 691.50 539.95 690.86 Z"
       id="path53" />
    <path
       fill="#1b243a"
       opacity="1.00"
       d=" M 729.19 690.90 L 730.37 691.05 C 736.07 691.88 741.83 691.18 747.57 691.19 C 746.92 703.81 748.19 716.41 748.00 729.03 C 748.12 736.68 747.47 744.33 747.71 751.99 C 757.71 751.91 767.65 753.17 777.64 753.00 C 776.78 758.23 776.91 763.55 776.58 768.83 L 776.44 770.10 C 773.01 769.28 769.47 768.93 765.97 769.39 C 759.86 770.07 753.72 769.99 747.60 770.16 C 741.49 770.11 735.39 770.07 729.29 770.34 C 729.08 761.56 728.63 752.79 728.83 744.01 C 729.25 726.30 728.81 708.60 729.19 690.90 Z"
       id="path54" />
    <path
       fill="#1b243a"
       opacity="1.00"
       d=" M 803.65 697.03 C 816.63 695.35 829.96 697.76 841.61 703.72 C 840.74 704.60 839.91 705.50 839.05 706.38 C 835.60 709.61 832.54 713.31 830.68 717.70 C 825.76 712.89 818.51 711.76 811.91 711.95 C 808.89 712.00 805.31 713.09 804.08 716.14 C 803.24 717.95 803.88 720.27 805.71 721.20 C 813.33 725.48 821.90 727.70 829.92 731.08 C 835.32 733.42 840.47 737.90 841.23 744.04 C 842.56 752.19 838.37 760.51 831.64 765.05 C 818.92 773.19 801.71 773.00 788.89 765.20 C 787.44 764.37 786.01 763.55 784.59 762.74 C 787.30 757.98 790.89 753.79 793.79 749.15 C 800.28 752.67 807.59 755.04 815.05 754.70 C 817.95 754.38 820.41 752.25 821.83 749.79 C 822.39 747.27 820.36 744.77 818.03 744.07 C 810.16 741.45 801.54 740.22 794.64 735.35 C 785.71 728.36 783.23 714.21 790.03 704.96 C 793.16 700.42 798.44 698.19 803.65 697.03 Z"
       id="path55" />
    <path
       fill="#1b243a"
       opacity="1.00"
       d=" M 325.59 697.35 C 332.92 697.79 340.26 697.48 347.60 697.62 C 358.63 698.47 369.63 696.74 380.64 697.31 C 379.63 702.59 379.10 707.96 378.17 713.26 C 366.96 712.82 355.75 713.37 344.54 713.24 C 344.76 716.85 344.95 720.46 345.01 724.08 C 354.68 724.71 364.35 725.35 374.01 726.13 C 374.35 730.75 374.47 735.38 374.87 740.00 C 364.55 740.44 354.20 741.35 343.87 740.44 C 343.91 744.65 344.25 748.86 345.02 753.02 C 356.55 754.45 368.18 753.15 379.71 754.11 C 379.74 759.01 379.74 763.93 379.26 768.82 C 373.72 769.57 368.15 769.97 362.56 770.14 C 350.65 770.63 338.71 770.32 326.88 768.77 C 325.79 762.80 325.85 756.69 325.04 750.68 C 325.17 734.92 325.14 719.15 325.75 703.39 C 325.81 701.37 325.71 699.35 325.59 697.35 Z"
       id="path56" />
    <path
       fill="#1b243a"
       opacity="1.00"
       d=" M 692.00 697.59 C 698.52 699.58 705.43 699.28 711.85 697.03 C 709.84 710.92 709.95 725.01 710.26 739.01 C 710.54 749.18 709.71 759.34 710.14 769.51 C 704.08 769.17 697.90 769.06 691.98 770.58 L 691.94 770.57 C 692.34 755.70 690.75 740.84 691.54 725.97 C 692.18 716.52 691.96 707.05 692.00 697.59 Z"
       id="path57" />
    <path
       fill="#1b243a"
       opacity="1.00"
       d=" M 619.29 697.46 C 620.18 697.54 621.95 697.68 622.83 697.76 C 623.95 697.85 625.09 697.91 626.23 697.96 C 643.44 698.74 660.70 697.25 677.89 698.67 C 676.69 703.56 676.87 708.62 676.92 713.61 C 670.02 713.88 663.09 713.92 656.23 714.75 C 656.25 733.08 657.70 751.38 658.00 769.71 C 653.34 770.01 648.67 770.63 644.00 770.31 C 642.69 770.37 641.80 769.81 641.33 768.63 C 639.66 765.38 639.62 761.62 639.26 758.07 C 638.79 746.61 639.86 735.09 638.60 723.66 C 638.56 720.37 638.61 717.08 638.68 713.80 C 633.63 713.51 628.56 713.58 623.52 714.02 C 622.34 714.00 621.17 713.99 620.01 714.00 C 619.98 708.48 619.64 702.97 619.29 697.46 Z"
       id="path58" />
    <path
       fill="#1b243a"
       opacity="1.00"
       d=" M 435.14 796.42 C 437.51 796.57 440.34 795.91 442.28 797.67 C 446.32 801.29 448.73 806.28 452.23 810.38 C 454.48 805.50 457.98 801.43 461.51 797.46 C 464.05 797.25 466.61 797.08 469.17 796.94 C 469.24 807.96 468.09 818.99 468.95 830.00 C 466.42 829.98 463.89 830.00 461.36 830.01 C 460.83 824.03 461.08 818.02 460.94 812.03 C 458.32 816.27 455.95 820.68 452.93 824.68 C 449.77 823.58 447.59 821.00 446.12 818.11 C 445.00 815.70 443.89 813.29 442.45 811.06 C 442.49 816.83 443.01 822.58 443.01 828.35 L 442.95 829.59 L 442.92 830.17 C 440.61 829.92 438.31 829.57 436.05 829.09 L 435.85 827.87 C 433.61 817.51 434.80 806.90 435.14 796.42 Z"
       id="path59" />
    <path
       fill="#1b243a"
       opacity="1.00"
       d=" M 520.34 796.34 C 522.82 796.06 525.29 796.62 527.74 796.99 C 528.24 799.60 528.87 802.19 529.72 804.72 C 530.94 808.63 532.42 812.46 533.82 816.32 C 536.17 810.84 537.03 804.79 540.04 799.61 C 540.36 799.13 541.02 798.17 541.34 797.70 C 543.36 797.92 545.20 798.94 546.31 800.69 C 549.54 805.46 550.77 811.22 552.34 816.68 C 554.39 810.25 556.43 803.75 557.25 797.02 C 560.24 796.82 563.25 796.81 566.25 797.03 C 564.50 804.03 561.55 810.67 559.51 817.59 C 558.05 821.61 557.46 826.22 554.43 829.45 C 553.57 830.44 551.35 830.57 550.75 829.22 C 547.59 824.09 545.77 818.28 543.42 812.76 C 540.63 818.53 538.62 824.64 536.69 830.74 C 534.28 830.61 530.75 831.05 529.69 828.31 C 526.30 820.58 524.46 812.29 521.72 804.33 C 521.12 801.72 519.92 799.02 520.34 796.34 Z"
       id="path60" />
    <path
       fill="#1b243a"
       opacity="1.00"
       d=" M 626.21 796.61 C 631.50 797.25 636.87 796.62 642.15 797.36 C 647.66 798.78 653.93 803.46 652.67 809.90 C 652.47 813.93 648.82 815.93 645.97 818.03 C 648.56 822.05 651.34 825.95 653.90 829.99 C 650.57 830.01 647.25 829.97 643.93 830.01 C 643.76 829.69 643.42 829.03 643.25 828.70 C 641.28 824.89 639.57 820.27 635.09 818.85 C 634.35 822.67 634.11 826.57 634.00 830.46 C 633.39 830.38 632.19 830.21 631.58 830.13 C 630.03 829.88 628.50 829.65 626.96 829.40 C 625.71 818.51 626.22 807.54 626.21 796.61 M 634.26 804.24 C 634.14 806.72 634.15 809.21 634.32 811.70 C 637.52 813.22 643.71 812.64 643.42 807.97 C 642.27 804.19 637.51 804.11 634.26 804.24 Z"
       id="path61" />
    <path
       fill="#1b243a"
       opacity="1.00"
       d=" M 313.09 796.92 C 320.38 797.11 327.69 796.83 334.98 797.20 C 334.89 799.35 334.88 801.52 334.56 803.67 C 330.16 804.90 325.51 804.32 321.00 804.61 C 320.99 806.70 321.00 808.80 321.00 810.90 C 324.64 810.95 328.28 810.92 331.91 810.83 C 332.28 812.87 332.65 814.92 333.01 816.98 C 329.00 816.99 324.96 817.09 321.04 817.97 C 320.93 822.20 320.77 826.43 320.53 830.66 C 318.13 830.09 315.67 829.97 313.22 829.79 C 313.20 818.83 314.00 807.86 313.09 796.92 Z"
       id="path62" />
    <path
       fill="#1b243a"
       opacity="1.00"
       d=" M 350.15 797.16 C 356.00 797.18 361.93 796.43 367.73 797.34 C 372.59 799.39 376.69 804.50 376.40 809.96 C 375.60 813.50 372.38 815.66 369.98 818.10 C 371.72 822.81 375.75 826.29 378.30 830.59 C 374.97 830.32 371.39 831.24 368.20 830.21 C 365.90 827.10 364.70 823.34 362.80 820.00 C 361.13 819.98 359.45 819.97 357.79 819.98 C 357.68 823.64 357.60 827.31 357.16 830.96 C 354.74 830.91 352.34 830.86 349.93 830.80 C 349.88 819.59 349.97 808.37 350.15 797.16 M 358.04 804.07 C 357.30 806.89 357.16 809.80 357.33 812.70 C 360.61 813.10 363.92 812.85 367.12 812.00 C 367.77 809.68 367.45 807.30 366.82 805.03 C 364.02 803.91 361.00 803.89 358.04 804.07 Z"
       id="path63" />
    <path
       fill="#1b243a"
       opacity="1.00"
       d=" M 401.54 797.22 C 403.55 796.52 405.79 797.03 407.90 796.96 C 410.72 802.37 412.95 808.06 415.34 813.67 C 417.54 819.04 420.00 824.35 421.26 830.06 C 418.16 830.03 415.07 829.97 411.98 830.01 C 411.40 827.39 410.84 824.78 410.15 822.20 C 406.40 822.84 402.59 822.98 398.80 822.93 C 398.17 825.33 397.78 827.77 397.28 830.20 C 394.54 830.74 391.75 830.86 388.98 830.73 C 391.09 818.90 396.19 807.88 401.54 797.22 M 401.21 815.91 C 403.22 815.94 405.22 815.90 407.24 815.85 C 406.87 812.97 405.73 810.29 404.51 807.68 C 402.89 810.19 401.91 813.02 401.21 815.91 Z"
       id="path64" />
    <path
       fill="#1b243a"
       opacity="1.00"
       d=" M 486.00 797.11 C 493.28 798.15 500.58 796.96 507.88 796.95 C 507.68 799.59 507.51 802.24 507.16 804.88 C 502.78 804.56 498.38 804.79 494.01 805.22 C 493.81 805.18 493.40 805.09 493.19 805.04 C 493.14 806.73 493.10 808.44 493.08 810.15 C 497.12 810.52 501.19 810.73 505.25 810.99 C 505.09 812.52 504.90 814.06 504.62 815.60 C 501.08 817.52 496.90 816.80 493.05 817.12 C 493.24 818.73 493.44 820.35 493.68 821.98 C 498.13 822.01 502.59 822.05 507.04 822.06 C 507.23 824.71 507.40 827.36 507.58 830.03 C 501.26 829.80 494.93 829.83 488.62 830.02 C 487.82 830.00 486.21 829.96 485.41 829.94 C 486.02 819.01 485.94 808.05 486.00 797.11 Z"
       id="path65" />
    <path
       fill="#1b243a"
       opacity="1.00"
       d=" M 590.37 797.40 C 595.40 796.16 601.33 797.11 605.09 800.89 C 608.91 804.52 611.34 809.82 610.98 815.15 C 609.38 825.26 597.76 833.17 587.91 829.05 C 582.24 826.96 579.54 821.12 577.48 815.89 C 576.14 807.62 582.35 799.28 590.37 797.40 M 585.47 814.94 C 585.94 817.76 587.62 820.44 590.21 821.78 C 592.38 822.26 594.65 821.97 596.86 822.03 C 602.09 819.04 604.30 810.90 599.28 806.72 C 593.92 800.87 583.98 807.98 585.47 814.94 Z"
       id="path66" />
    <path
       fill="#1b243a"
       opacity="1.00"
       d=" M 667.04 796.59 C 669.74 796.57 672.43 796.55 675.14 796.52 C 675.04 800.58 674.30 804.58 673.85 808.61 C 678.55 805.76 682.31 801.70 685.80 797.52 C 687.83 794.97 691.56 796.80 694.25 796.65 C 693.35 803.02 686.42 806.16 683.91 811.78 C 687.05 818.02 692.48 822.81 695.47 829.18 L 695.79 829.77 L 694.66 829.68 C 692.09 829.37 689.51 829.56 686.96 829.86 C 683.29 825.83 680.80 820.54 675.76 817.95 C 675.08 821.96 675.18 826.03 675.32 830.08 L 673.72 830.06 C 671.58 829.64 668.52 830.82 667.19 828.60 C 666.87 817.93 667.01 807.26 667.04 796.59 Z"
       id="path67" />
    <path
       fill="#1b243a"
       opacity="1.00"
       d=" M 452.07 217.31 C 461.97 199.99 480.91 188.02 500.90 187.07 C 507.95 186.82 515.13 186.43 522.03 188.25 C 537.51 192.24 550.96 202.67 559.50 216.09 C 575.68 207.75 596.50 208.98 611.40 219.56 C 621.82 227.11 630.40 238.08 632.62 251.01 C 635.08 251.01 637.55 250.99 640.01 251.14 C 653.51 251.66 666.64 258.35 675.09 268.87 C 679.47 274.58 682.90 281.01 685.38 287.76 C 686.25 294.01 686.17 300.34 686.06 306.63 C 693.94 308.18 701.32 312.15 707.16 317.63 C 711.38 322.02 714.79 327.23 716.77 333.00 C 718.09 337.91 718.79 342.98 719.07 348.06 C 719.58 356.36 717.14 364.53 713.77 372.03 C 718.20 379.30 724.03 385.80 727.14 393.83 C 730.46 402.42 730.90 412.01 728.92 420.97 C 725.70 436.99 717.75 452.50 705.02 463.00 C 701.49 466.12 697.47 468.63 693.86 471.65 C 691.51 473.39 689.10 475.05 686.71 476.72 C 685.51 477.50 684.34 478.29 683.21 479.15 C 675.80 484.45 668.62 490.06 660.91 494.93 C 652.57 500.15 645.17 506.67 637.15 512.33 C 635.19 529.04 630.88 545.39 626.38 561.57 C 623.60 570.05 622.59 579.22 618.15 587.10 C 615.97 591.21 611.55 593.71 607.00 594.21 C 600.37 595.01 593.66 594.58 587.01 594.99 C 577.37 595.50 567.71 595.31 558.08 594.72 C 543.97 594.69 529.83 594.09 515.74 594.85 C 502.79 596.62 489.72 595.57 476.71 595.49 C 460.66 595.26 444.60 595.18 428.55 595.48 C 422.03 595.45 415.50 595.52 408.99 595.31 C 403.68 595.40 399.42 591.65 396.13 587.90 C 391.09 582.10 390.27 574.19 387.88 567.17 C 382.19 549.76 377.29 531.88 375.78 513.59 C 366.16 506.79 356.35 500.19 347.10 492.87 C 340.59 487.64 333.43 483.30 326.78 478.27 C 318.33 471.82 309.02 466.22 302.15 457.96 C 298.40 453.30 294.60 448.65 291.35 443.62 C 286.28 434.94 283.30 425.06 282.35 415.07 C 280.88 398.66 288.48 382.61 299.85 371.12 C 298.05 368.87 296.35 366.45 295.65 363.62 C 292.01 350.58 294.10 335.96 301.50 324.60 C 306.77 315.55 316.19 309.64 326.01 306.61 C 325.45 296.25 326.77 285.38 332.52 276.50 C 341.82 260.21 361.09 249.59 379.93 252.44 C 381.75 246.94 383.28 241.27 386.24 236.24 C 394.18 221.94 409.62 211.85 426.05 211.16 C 435.00 210.75 444.65 211.87 452.07 217.31 M 493.91 205.35 C 482.76 208.28 471.52 214.59 466.27 225.30 C 464.13 229.39 460.84 233.13 460.23 237.83 C 461.56 241.78 462.78 245.78 463.27 249.93 C 465.04 262.99 466.98 276.03 469.16 289.02 C 471.73 303.91 472.73 319.01 474.85 333.97 C 476.46 347.39 479.63 360.58 481.01 374.05 C 482.86 385.95 483.81 397.99 486.13 409.83 C 488.78 424.16 489.50 438.76 492.26 453.09 C 495.47 468.89 496.59 485.02 499.03 500.94 C 498.72 502.33 499.13 503.76 499.27 505.16 C 501.80 522.17 503.83 539.24 505.61 556.34 C 505.44 541.15 507.84 526.10 509.79 511.08 C 511.54 494.34 513.78 477.65 516.12 460.98 C 519.12 441.66 520.73 422.15 524.27 402.91 C 526.41 390.61 527.62 378.17 529.59 365.84 C 533.12 341.92 535.84 317.87 539.99 294.05 C 542.02 276.18 544.84 258.42 548.46 240.81 C 548.78 238.73 549.69 236.41 548.41 234.48 C 545.55 229.19 543.15 223.53 539.07 219.02 C 534.40 213.89 528.70 209.51 522.03 207.39 C 513.30 203.34 503.17 203.24 493.91 205.35 M 568.25 232.29 C 565.82 237.11 565.79 242.76 564.52 247.95 C 560.97 270.63 557.74 293.36 553.98 316.00 C 548.17 360.07 540.68 403.89 534.53 447.91 C 532.08 462.92 530.53 478.05 528.28 493.09 C 525.51 511.10 523.24 529.20 519.57 547.06 C 518.47 552.69 517.88 558.41 517.38 564.12 C 520.00 557.12 521.01 549.66 523.47 542.61 C 529.14 527.10 532.91 510.98 536.66 494.92 C 538.60 487.78 541.53 480.96 543.82 473.94 C 548.76 456.77 555.70 440.29 561.44 423.39 C 565.04 413.27 568.42 403.08 572.31 393.07 C 579.63 371.45 588.10 350.25 596.17 328.91 C 603.28 308.58 611.15 288.53 617.78 268.03 C 618.59 265.73 617.29 263.45 616.70 261.28 C 614.69 255.94 613.61 250.23 610.86 245.19 C 609.01 241.76 606.07 239.14 603.22 236.57 C 597.28 231.05 589.27 227.16 581.01 227.92 C 576.54 228.26 571.65 229.15 568.25 232.29 M 405.63 237.64 C 397.39 244.66 395.90 255.96 393.98 265.96 C 393.18 268.58 394.90 270.93 395.76 273.28 C 398.70 279.60 399.71 286.56 402.14 293.05 C 404.21 299.06 406.60 304.95 408.54 311.01 C 411.26 319.83 415.22 328.19 418.24 336.90 C 428.77 366.47 440.09 395.77 449.28 425.80 C 450.92 431.24 453.41 436.38 455.28 441.74 C 458.51 451.65 462.73 461.21 465.35 471.32 C 465.63 475.05 467.60 478.54 468.65 482.14 C 471.24 488.60 472.54 495.47 474.94 502.00 C 482.33 520.99 484.97 541.51 492.89 560.32 C 487.87 534.63 484.01 508.75 479.84 482.91 C 478.32 473.26 477.90 463.45 475.83 453.88 C 473.91 445.36 473.20 436.63 471.97 428.00 C 470.35 418.83 468.57 409.68 467.37 400.45 C 465.89 386.00 462.31 371.88 460.74 357.45 C 459.61 345.25 457.03 333.23 456.07 321.00 C 453.55 294.66 449.05 268.57 445.06 242.43 C 445.05 239.68 444.93 236.80 443.96 234.20 C 442.27 232.07 439.26 231.75 436.92 230.63 C 431.99 228.36 426.31 228.32 421.08 229.46 C 415.30 230.79 410.45 234.39 405.63 237.64 M 352.86 277.82 C 345.13 284.35 342.37 295.15 343.61 304.92 C 344.20 311.81 348.62 317.42 351.50 323.48 C 359.32 337.80 367.81 351.75 376.20 365.75 C 381.84 375.41 387.47 385.09 393.47 394.54 C 406.43 417.00 419.54 439.39 432.32 461.94 C 434.43 467.09 437.75 471.69 440.50 476.53 C 449.64 491.01 458.11 506.05 463.79 522.26 C 462.53 512.18 458.48 502.79 455.65 493.11 C 450.57 479.44 445.58 465.74 440.99 451.90 L 440.83 452.05 C 438.32 441.37 433.76 431.38 430.03 421.12 C 427.22 413.50 424.80 405.74 422.30 398.01 C 417.21 385.11 412.37 372.10 407.98 358.94 C 402.84 344.75 397.45 330.65 392.35 316.45 C 389.75 308.03 386.03 300.01 383.62 291.52 C 381.52 284.00 378.51 276.77 376.51 269.21 C 367.86 268.61 359.42 272.41 352.86 277.82 M 635.44 268.93 C 631.78 277.16 629.72 285.96 626.51 294.36 C 623.60 301.62 621.90 309.33 618.44 316.37 C 615.04 323.42 614.05 331.40 610.26 338.29 C 608.71 341.02 607.59 343.97 606.89 347.03 C 605.12 354.33 600.75 360.67 598.99 367.98 C 597.44 374.27 593.90 379.82 592.28 386.08 C 590.60 392.54 587.98 398.68 585.59 404.89 C 577.83 429.98 567.00 453.99 559.20 479.07 L 559.02 479.16 C 556.90 485.66 554.17 491.94 552.34 498.54 C 550.88 503.76 548.34 508.78 548.29 514.31 C 549.67 507.63 554.53 502.64 557.97 496.99 C 563.28 489.08 567.44 480.49 572.37 472.34 C 576.32 465.59 580.11 458.74 583.98 451.95 C 586.96 447.25 589.92 442.54 592.49 437.60 C 600.15 425.41 607.53 413.03 614.47 400.40 C 622.93 386.24 631.60 372.20 640.01 357.99 C 644.24 350.94 649.26 344.37 653.01 337.03 C 657.71 328.00 663.52 319.54 667.42 310.10 C 671.22 299.68 666.97 288.00 659.82 280.08 C 653.94 273.03 644.80 268.05 635.44 268.93 M 312.76 339.79 C 309.64 349.95 311.79 361.41 317.88 370.06 C 323.27 377.60 329.19 384.76 335.47 391.58 C 346.08 403.68 356.64 415.81 367.19 427.95 C 372.58 434.97 378.42 442.04 384.05 449.02 C 395.38 461.71 406.63 474.48 417.67 487.44 C 423.98 495.66 431.66 502.73 437.92 511.01 C 440.95 515.70 444.59 519.93 448.19 524.20 L 448.12 524.67 C 452.91 529.55 457.60 534.57 463.14 538.64 C 467.45 544.24 472.30 549.61 474.74 556.37 C 473.50 548.56 470.15 541.16 465.95 534.51 L 466.27 534.05 C 465.89 533.52 465.12 532.47 464.74 531.95 C 458.16 530.27 453.17 525.55 448.66 520.75 L 448.74 520.23 C 446.41 516.58 443.88 513.07 441.60 509.39 L 441.22 509.55 C 439.32 505.93 437.13 502.48 435.19 498.89 C 429.86 488.64 422.82 479.40 417.09 469.38 C 411.28 459.82 406.76 449.54 400.86 440.02 C 398.78 436.77 397.00 433.34 395.23 429.92 C 385.86 413.12 375.75 396.75 365.79 380.31 C 360.88 370.53 353.98 361.96 348.78 352.35 C 343.50 342.63 337.20 333.50 332.00 323.76 C 323.64 325.62 315.28 331.23 312.76 339.79 M 679.58 323.85 C 678.40 327.29 676.15 330.15 674.00 333.02 C 670.63 337.56 669.08 343.14 665.72 347.69 C 662.26 352.44 660.10 357.96 656.73 362.77 C 652.37 369.18 647.88 375.50 644.33 382.42 C 638.56 390.29 635.07 399.52 629.34 407.42 C 624.84 413.78 621.93 421.06 617.71 427.58 C 613.90 433.57 611.08 440.14 607.00 445.98 C 602.25 452.81 598.91 460.49 594.34 467.44 C 589.54 474.86 585.67 482.81 581.36 490.51 L 581.19 490.59 C 577.87 496.11 574.32 501.48 570.96 506.98 C 568.67 510.36 566.78 514.10 563.70 516.86 C 559.35 520.37 555.76 524.73 551.35 528.17 C 546.94 531.20 544.47 536.10 541.68 540.50 C 538.84 546.18 536.05 551.88 533.58 557.74 C 536.81 555.88 538.33 552.39 540.38 549.48 C 542.50 546.21 545.06 543.26 547.49 540.22 C 553.15 533.16 559.32 526.52 565.12 519.57 C 574.06 510.99 581.69 501.19 589.78 491.83 C 596.05 483.82 603.33 476.69 609.75 468.80 C 617.24 459.94 624.84 451.17 632.28 442.26 C 643.51 429.50 653.92 416.01 665.84 403.86 C 674.56 395.18 682.21 385.52 690.30 376.27 C 694.15 371.88 697.82 367.09 699.62 361.46 C 702.29 351.92 700.74 341.35 695.81 332.81 C 691.81 327.81 685.74 325.07 679.58 323.85 M 300.71 403.07 C 299.64 411.67 301.25 420.57 304.33 428.63 C 305.87 434.57 310.06 439.34 313.85 444.00 C 319.82 451.56 328.28 456.45 335.82 462.24 C 342.85 467.55 350.37 472.21 357.16 477.85 C 363.87 483.23 370.94 488.13 378.00 493.03 C 385.64 499.17 393.78 504.65 401.99 509.98 C 416.26 519.64 429.10 531.21 443.23 541.03 C 436.36 533.18 428.68 526.10 421.73 518.33 C 414.16 509.19 406.47 500.15 398.80 491.10 C 395.84 487.62 393.30 483.76 389.97 480.61 L 389.73 480.47 C 383.88 473.60 378.21 466.58 372.17 459.88 C 356.72 440.43 340.14 421.93 323.73 403.30 C 319.04 397.81 313.90 392.70 309.59 386.89 C 304.96 391.10 301.51 396.80 300.71 403.07 M 686.86 404.86 C 673.75 419.14 661.25 433.98 648.91 448.92 C 637.23 461.63 626.42 475.10 614.91 487.96 C 606.95 496.71 600.41 506.63 592.30 515.26 L 592.03 515.34 C 586.07 521.28 580.23 527.34 574.34 533.35 C 573.02 534.69 572.00 536.27 571.02 537.87 C 581.46 530.80 591.69 523.43 601.67 515.74 C 615.48 505.90 629.13 495.83 643.04 486.13 C 655.91 476.17 669.81 467.63 682.77 457.79 C 692.20 450.23 701.99 442.12 706.82 430.71 C 710.79 420.98 711.73 410.00 709.74 399.70 L 710.16 399.25 C 708.51 394.96 705.90 390.98 702.04 388.39 C 697.33 394.21 691.79 399.25 686.86 404.86 M 612.29 531.09 C 599.71 542.24 584.42 549.56 570.16 558.24 C 560.29 563.24 551.14 569.46 541.79 575.32 C 546.07 575.59 550.37 575.70 554.67 575.56 C 562.71 576.25 570.88 576.87 578.92 576.07 C 585.25 576.27 591.59 576.34 597.93 576.39 C 599.57 576.07 601.96 576.74 602.92 574.98 C 604.49 572.13 604.92 568.85 605.78 565.77 C 607.97 556.50 611.78 547.63 613.12 538.17 C 614.00 535.29 614.88 532.39 615.00 529.36 C 614.04 529.86 613.14 530.43 612.29 531.09 M 398.20 530.42 C 399.71 545.25 405.56 559.16 409.81 573.33 C 411.43 577.85 417.28 576.29 420.98 576.27 C 426.60 576.99 432.26 576.53 437.90 576.45 C 448.43 576.12 459.03 576.74 469.48 575.14 C 466.88 572.59 463.35 571.46 460.39 569.44 C 456.56 566.95 452.57 564.72 448.50 562.65 C 433.25 553.95 418.37 544.62 403.48 535.33 C 401.59 533.83 400.09 531.92 398.20 530.42 Z"
       id="path46" />
  </g>
  <g
     id="#90d5e7ff">
    <path
       fill="#90d5e7"
       opacity="1.00"
       d=" M 430.07 167.00 C 451.56 161.03 473.58 156.04 495.98 155.82 C 512.75 155.39 529.63 156.15 546.12 159.36 C 555.27 161.08 564.48 162.53 573.54 164.70 C 583.05 167.43 592.43 170.66 601.57 174.47 C 609.01 177.52 616.61 180.31 623.60 184.36 C 638.29 192.51 652.78 201.27 665.50 212.31 C 680.48 225.01 694.32 239.16 705.89 255.06 C 710.42 261.91 715.40 268.47 719.48 275.62 C 728.88 292.25 737.78 309.36 743.16 327.78 C 747.39 340.40 750.84 353.34 752.22 366.61 C 752.23 366.97 752.24 367.68 752.25 368.03 C 746.81 363.71 741.74 358.94 737.56 353.37 C 731.80 345.79 723.71 340.16 719.20 331.62 C 717.28 328.36 714.98 325.34 713.11 322.05 C 712.04 320.46 713.47 318.69 713.80 317.08 C 712.87 315.88 711.95 314.68 711.00 313.51 C 705.39 306.96 700.11 300.11 693.89 294.12 C 691.43 291.54 688.74 289.09 685.38 287.76 C 682.90 281.01 679.47 274.58 675.09 268.87 C 666.64 258.35 653.51 251.66 640.01 251.14 C 637.55 250.99 635.08 251.01 632.62 251.01 C 630.40 238.08 621.82 227.11 611.40 219.56 C 596.50 208.98 575.68 207.75 559.50 216.09 C 550.96 202.67 537.51 192.24 522.03 188.25 C 515.13 186.43 507.95 186.82 500.90 187.07 C 480.91 188.02 461.97 199.99 452.07 217.31 C 444.65 211.87 435.00 210.75 426.05 211.16 C 409.62 211.85 394.18 221.94 386.24 236.24 C 383.28 241.27 381.75 246.94 379.93 252.44 C 361.09 249.59 341.82 260.21 332.52 276.50 C 326.77 285.38 325.45 296.25 326.01 306.61 C 316.19 309.64 306.77 315.55 301.50 324.60 C 294.10 335.96 292.01 350.58 295.65 363.62 C 296.35 366.45 298.05 368.87 299.85 371.12 C 288.48 382.61 280.88 398.66 282.35 415.07 C 283.30 425.06 286.28 434.94 291.35 443.62 C 294.60 448.65 298.40 453.30 302.15 457.96 C 309.02 466.22 318.33 471.82 326.78 478.27 C 333.43 483.30 340.59 487.64 347.10 492.87 C 356.35 500.19 366.16 506.79 375.78 513.59 C 377.29 531.88 382.19 549.76 387.88 567.17 C 390.27 574.19 391.09 582.10 396.13 587.90 C 399.42 591.65 403.68 595.40 408.99 595.31 C 415.50 595.52 422.03 595.45 428.55 595.48 C 425.49 596.30 422.39 597.00 419.26 597.51 C 420.09 598.28 420.91 599.06 421.75 599.86 C 421.58 603.60 421.12 607.34 420.27 611.00 C 419.10 611.58 417.94 612.17 416.79 612.78 C 416.36 615.33 416.43 618.43 414.04 620.08 C 411.50 622.64 407.79 621.10 404.82 620.42 C 398.53 618.01 392.66 614.66 386.91 611.19 C 377.95 606.26 368.83 601.54 360.60 595.44 C 353.79 590.26 346.64 585.50 340.18 579.88 C 328.27 568.84 316.47 557.56 306.24 544.93 C 294.05 528.31 283.17 510.60 275.49 491.41 C 268.29 475.28 263.64 458.16 259.99 440.92 C 257.10 426.13 256.37 411.01 256.73 395.96 C 256.72 378.70 260.00 361.68 263.34 344.82 C 271.82 309.80 287.88 276.62 310.32 248.42 C 320.47 235.96 331.87 224.54 343.97 213.98 C 354.29 204.58 366.16 197.12 378.04 189.87 C 394.35 180.13 411.93 172.57 430.07 167.00 Z"
       id="path72" />
  </g>
  <g
     id="#f7f8f7ff">
    <path
       fill="#f7f8f7"
       opacity="1.00"
       d=" M 493.91 205.35 C 503.17 203.24 513.30 203.34 522.03 207.39 C 516.06 221.85 514.76 237.61 512.80 252.97 C 511.91 262.49 510.38 271.94 509.57 281.47 C 507.39 308.25 507.48 335.14 506.27 361.97 C 505.32 381.98 505.72 402.02 505.03 422.03 C 504.93 439.03 502.90 455.93 502.13 472.90 C 501.61 482.26 503.13 492.16 499.03 500.94 C 496.59 485.02 495.47 468.89 492.26 453.09 C 489.50 438.76 488.78 424.16 486.13 409.83 C 483.81 397.99 482.86 385.95 481.01 374.05 C 479.63 360.58 476.46 347.39 474.85 333.97 C 472.73 319.01 471.73 303.91 469.16 289.02 C 466.98 276.03 465.04 262.99 463.27 249.93 C 462.78 245.78 461.56 241.78 460.23 237.83 C 460.84 233.13 464.13 229.39 466.27 225.30 C 471.52 214.59 482.76 208.28 493.91 205.35 Z"
       id="path73" />
    <path
       fill="#f7f8f7"
       opacity="1.00"
       d=" M 568.25 232.29 C 571.65 229.15 576.54 228.26 581.01 227.92 C 589.27 227.16 597.28 231.05 603.22 236.57 C 599.34 245.24 597.14 254.50 594.59 263.61 C 590.96 275.73 587.52 287.90 583.97 300.04 C 581.25 309.33 579.10 318.79 575.85 327.92 C 571.63 342.10 566.14 355.87 562.17 370.13 C 557.24 384.91 552.63 399.81 548.96 414.96 C 545.54 431.51 539.33 447.34 536.11 463.95 C 534.17 473.79 532.65 483.73 530.00 493.42 C 529.57 493.34 528.71 493.17 528.28 493.09 C 530.53 478.05 532.08 462.92 534.53 447.91 C 540.68 403.89 548.17 360.07 553.98 316.00 C 557.74 293.36 560.97 270.63 564.52 247.95 C 565.79 242.76 565.82 237.11 568.25 232.29 Z"
       id="path74" />
    <path
       fill="#f7f8f7"
       opacity="1.00"
       d=" M 405.63 237.64 C 410.45 234.39 415.30 230.79 421.08 229.46 C 426.31 228.32 431.99 228.36 436.92 230.63 C 436.29 240.15 438.15 249.55 438.98 259.00 C 439.48 264.21 440.22 269.39 440.88 274.58 C 442.04 301.16 446.28 327.55 452.71 353.36 C 454.82 362.79 455.45 372.52 458.30 381.80 C 460.99 390.85 461.83 400.30 463.48 409.58 C 464.78 418.55 466.53 427.63 465.67 436.73 C 463.48 446.15 466.68 455.53 466.71 464.97 C 466.88 467.19 465.94 469.23 465.35 471.32 C 462.73 461.21 458.51 451.65 455.28 441.74 C 453.41 436.38 450.92 431.24 449.28 425.80 C 440.09 395.77 428.77 366.47 418.24 336.90 C 415.22 328.19 411.26 319.83 408.54 311.01 C 406.60 304.95 404.21 299.06 402.14 293.05 C 399.71 286.56 398.70 279.60 395.76 273.28 C 394.90 270.93 393.18 268.58 393.98 265.96 C 395.90 255.96 397.39 244.66 405.63 237.64 Z"
       id="path75"
       style="filter:url(#filter104)" />
    <path
       fill="#f7f8f7"
       opacity="1.00"
       d=" M 352.86 277.82 C 359.42 272.41 367.86 268.61 376.51 269.21 C 378.51 276.77 381.52 284.00 383.62 291.52 C 386.03 300.01 389.75 308.03 392.35 316.45 C 397.45 330.65 402.84 344.75 407.98 358.94 C 407.16 359.23 406.35 359.52 405.55 359.82 C 407.92 364.24 409.22 369.11 409.98 374.05 C 410.93 379.88 412.88 385.49 415.25 390.90 C 417.57 396.03 418.46 401.73 421.25 406.66 C 423.68 411.02 425.34 415.74 427.14 420.38 C 428.10 420.61 429.07 420.84 430.03 421.12 C 433.76 431.38 438.32 441.37 440.83 452.05 C 439.52 453.15 438.22 454.26 436.93 455.37 C 435.34 452.81 433.79 450.25 432.28 447.66 C 432.64 452.41 432.51 457.18 432.32 461.94 C 419.54 439.39 406.43 417.00 393.47 394.54 C 387.47 385.09 381.84 375.41 376.20 365.75 C 367.81 351.75 359.32 337.80 351.50 323.48 C 348.62 317.42 344.20 311.81 343.61 304.92 C 342.37 295.15 345.13 284.35 352.86 277.82 Z"
       id="path76" />
    <path
       fill="#f7f8f7"
       opacity="1.00"
       d=" M 635.44 268.93 C 644.80 268.05 653.94 273.03 659.82 280.08 C 655.98 285.39 654.73 291.95 651.64 297.65 C 648.27 303.89 646.25 310.75 642.82 316.96 C 639.34 323.20 636.63 329.83 633.04 336.01 C 627.54 346.78 621.18 357.09 615.87 367.96 C 608.75 382.36 600.22 396.02 593.63 410.69 C 587.09 422.98 580.56 435.29 574.83 447.98 C 569.36 457.59 566.69 468.49 561.12 478.06 C 560.64 478.31 559.68 478.82 559.20 479.07 C 567.00 453.99 577.83 429.98 585.59 404.89 C 587.98 398.68 590.60 392.54 592.28 386.08 C 593.90 379.82 597.44 374.27 598.99 367.98 C 600.75 360.67 605.12 354.33 606.89 347.03 C 607.59 343.97 608.71 341.02 610.26 338.29 C 614.05 331.40 615.04 323.42 618.44 316.37 C 621.90 309.33 623.60 301.62 626.51 294.36 C 629.72 285.96 631.78 277.16 635.44 268.93 Z"
       id="path77" />
    <path
       fill="#f7f8f7"
       opacity="1.00"
       d=" M 312.76 339.79 C 315.28 331.23 323.64 325.62 332.00 323.76 C 337.20 333.50 343.50 342.63 348.78 352.35 C 353.98 361.96 360.88 370.53 365.79 380.31 C 375.75 396.75 385.86 413.12 395.23 429.92 C 397.00 433.34 398.78 436.77 400.86 440.02 C 406.76 449.54 411.28 459.82 417.09 469.38 C 416.41 470.91 415.73 472.44 415.15 474.02 C 413.41 470.08 410.70 466.70 408.25 463.19 C 402.02 453.76 395.34 444.61 388.06 435.96 C 383.20 430.44 377.94 425.11 371.50 421.44 C 370.01 423.57 368.52 425.71 367.19 427.95 C 356.64 415.81 346.08 403.68 335.47 391.58 C 329.19 384.76 323.27 377.60 317.88 370.06 C 311.79 361.41 309.64 349.95 312.76 339.79 Z"
       id="path78" />
    <path
       fill="#f7f8f7"
       opacity="1.00"
       d=" M 679.58 323.85 C 685.74 325.07 691.81 327.81 695.81 332.81 C 693.37 339.56 688.90 345.23 685.20 351.29 C 679.47 360.40 672.55 368.66 666.46 377.52 C 660.33 385.06 654.24 392.65 648.93 400.82 C 643.62 409.06 635.53 415.11 630.56 423.60 C 624.95 433.36 617.44 441.80 610.37 450.50 C 600.35 463.07 593.56 477.91 582.72 489.85 C 582.38 490.01 581.70 490.35 581.36 490.51 C 585.67 482.81 589.54 474.86 594.34 467.44 C 598.91 460.49 602.25 452.81 607.00 445.98 C 611.08 440.14 613.90 433.57 617.71 427.58 C 621.93 421.06 624.84 413.78 629.34 407.42 C 635.07 399.52 638.56 390.29 644.33 382.42 C 647.88 375.50 652.37 369.18 656.73 362.77 C 660.10 357.96 662.26 352.44 665.72 347.69 C 669.08 343.14 670.63 337.56 674.00 333.02 C 676.15 330.15 678.40 327.29 679.58 323.85 Z"
       id="path79" />
    <path
       fill="#f7f8f7"
       opacity="1.00"
       d=" M 300.71 403.07 C 301.51 396.80 304.96 391.10 309.59 386.89 C 313.90 392.70 319.04 397.81 323.73 403.30 C 340.14 421.93 356.72 440.43 372.17 459.88 C 378.21 466.58 383.88 473.60 389.73 480.47 C 387.11 479.17 384.96 477.15 382.76 475.27 C 374.28 468.40 365.64 461.74 357.28 454.73 C 351.32 450.03 346.13 444.45 340.10 439.84 C 332.62 433.64 324.78 427.90 316.97 422.14 C 312.24 418.77 307.11 415.98 301.69 413.90 C 302.22 418.87 303.94 423.63 304.33 428.63 C 301.25 420.57 299.64 411.67 300.71 403.07 Z"
       id="path80" />
    <path
       fill="#f7f8f7"
       opacity="1.00"
       d=" M 686.86 404.86 C 691.79 399.25 697.33 394.21 702.04 388.39 C 705.90 390.98 708.51 394.96 710.16 399.25 L 709.74 399.70 C 702.31 407.31 696.26 416.17 688.36 423.32 C 681.44 429.38 675.51 436.47 668.55 442.49 C 663.39 447.74 657.08 451.66 651.80 456.77 C 636.70 471.71 622.10 487.17 606.10 501.17 C 602.03 505.78 598.96 511.40 593.66 514.82 C 593.32 514.93 592.64 515.15 592.30 515.26 C 600.41 506.63 606.95 496.71 614.91 487.96 C 626.42 475.10 637.23 461.63 648.91 448.92 C 661.25 433.98 673.75 419.14 686.86 404.86 Z"
       id="path81" />
    <path
       fill="#f7f8f7"
       opacity="1.00"
       d=" M 686.71 476.72 C 689.10 475.05 691.51 473.39 693.86 471.65 C 691.68 473.61 689.24 475.26 686.71 476.72 Z"
       id="path82" />
    <path
       fill="#f7f8f7"
       opacity="1.00"
       d=" M 612.29 531.09 C 613.14 530.43 614.04 529.86 615.00 529.36 C 614.88 532.39 614.00 535.29 613.12 538.17 C 612.97 536.37 612.70 534.55 612.51 532.77 C 606.48 536.48 600.46 540.60 595.77 545.94 C 594.57 554.52 594.53 564.56 587.44 570.75 C 582.92 572.95 578.16 575.17 573.02 575.06 C 566.89 575.02 560.77 574.99 554.67 575.56 C 550.37 575.70 546.07 575.59 541.79 575.32 C 551.14 569.46 560.29 563.24 570.16 558.24 C 584.42 549.56 599.71 542.24 612.29 531.09 Z"
       id="path83" />
    <path
       fill="#f7f8f7"
       opacity="1.00"
       d=" M 398.20 530.42 C 400.09 531.92 401.59 533.83 403.48 535.33 C 418.37 544.62 433.25 553.95 448.50 562.65 C 452.57 564.72 456.56 566.95 460.39 569.44 C 463.35 571.46 466.88 572.59 469.48 575.14 C 464.98 574.00 460.75 571.47 455.99 571.69 C 447.62 571.90 439.34 573.20 431.03 574.11 C 427.61 574.44 424.22 575.11 420.98 576.27 C 417.28 576.29 411.43 577.85 409.81 573.33 C 405.56 559.16 399.71 545.25 398.20 530.42 Z"
       id="path84" />
  </g>
  <g
     id="#178faeff">
    <path
       fill="#178fae"
       opacity="1"
       d="m 716.77,333 c 0.61,-0.34 1.82,-1.03 2.43,-1.38 4.51,8.54 12.6,14.17 18.36,21.75 4.18,5.57 9.25,10.34 14.69,14.66 -0.01,-0.35 -0.02,-1.06 -0.03,-1.42 v -0.4 c 1.74,5.07 1.78,10.49 2.4,15.77 1.19,9.29 0.66,18.67 1.04,28.01 -0.21,14.12 -2.81,28.06 -5.79,41.82 -1.64,9.39 -4.98,18.32 -7.82,27.37 -2.22,7.85 -6.19,15.02 -9.34,22.51 -3.73,6.93 -6.59,14.36 -11.13,20.83 -6.64,9.92 -13.15,19.98 -21.04,28.98 -17.1,21.31 -38.21,39.32 -61.46,53.64 -6.83,3.9 -13.85,7.47 -20.67,11.41 -12.01,5.88 -24.66,10.35 -37.3,14.65 -7.6,2.34 -15.28,5.1 -23.28,5.38 -5.88,-0.63 -11.76,0.76 -17.62,0.08 -2.78,-0.27 -5.16,-1.8 -7.55,-3.08 -5.2,-2.78 -11.02,-3.95 -16.6,-5.68 -4.03,-1.2 -7.69,-3.87 -12.07,-3.62 -9.98,-0.79 -20.39,3.19 -29.93,-1.31 -4.1,-2.27 -8.71,-3.07 -13.34,-3.24 -2.65,-6.9 -6.28,-13.35 -9.62,-19.92 -0.98,-1.9 -3.15,-2.59 -4.86,-3.64 6.59,0.41 13.19,-0.07 19.78,0.1 3.58,0.13 7.16,-0.23 10.69,-0.78 13.01,0.08 26.08,1.13 39.03,-0.64 14.09,-0.76 28.23,-0.16 42.34,-0.13 9.63,0.59 19.29,0.78 28.93,0.27 6.65,-0.41 13.36,0.02 19.99,-0.78 4.55,-0.5 8.97,-3 11.15,-7.11 4.44,-7.88 5.45,-17.05 8.23,-25.53 1.14,-1.03 1.75113,-7.0303 2.09113,-8.6703 1.84,-6.01 3.87887,-7.0797 5.40887,-13.1797 0.58,1.43 1.29,2.81 1.88,4.25 0.23,-1.23 0.44,-2.45 0.66,-3.66 4.89,-0.82 5.61858,-6.61325 10.56858,-6.24325 0.41,-0.9 5.06142,3.65325 5.49142,2.77325 1.94,-1.53 1.29633,-6.27959 3.24633,-7.77959 1.91,-0.8 6.82663,-2.02775 8.85663,-2.05775 0.15,0.56 0.75296,0.76113 0.90296,1.32113 6.24,-6.49 2.68124,-15.1248 8.74124,-21.7648 3.94,-4.5 15.59284,-2.32899 18.60284,-7.47899 -2.05,-0.53 -4.1,-1.05 -6.14,-1.58 -0.49,0.69 -0.97,1.39 -1.44,2.1 -0.95,0.09 -1.89,0.19 -2.82,0.31 0.39,-0.89 0.78,-1.78 1.19,-2.65 -3.85,-3.38 -5.41663,-8.6 -5.69663,-13.12 0.82,-1.68 -1.38959,-1.54225 1.65112,-2.26337 1.13,-0.86 5.63255,-4.67959 6.83255,-5.45959 2.53,-1.46 5.27296,-2.80704 7.45296,-4.76704 3.61,-3.02 7.63,-5.53 11.16,-8.65 12.73,-10.5 20.68,-26.01 23.9,-42.03 1.98,-8.96 1.54,-18.55 -1.78,-27.14 -3.11,-8.03 -8.94,-14.53 -13.37,-21.8 3.37,-7.5 5.81,-15.67 5.3,-23.97 -0.28,-5.08 -0.98,-10.15 -2.3,-15.06 z"
       id="path94"
       sodipodi:nodetypes="cccccccccccccccccccccccccccccccccccccccccccccccccccccccccc"
       style="filter:url(#filter106)" />
    <path
       fill="#178fae"
       opacity="1.00"
       d=" M 685.38 287.76 C 688.74 289.09 691.43 291.54 693.89 294.12 C 700.11 300.11 705.39 306.96 711.00 313.51 C 709.71 314.87 708.43 316.25 707.16 317.63 C 701.32 312.15 693.94 308.18 686.06 306.63 C 686.17 300.34 686.25 294.01 685.38 287.76 Z"
       id="path93" />
  </g>
  <g
     id="#3aa3bfff">
    <path
       fill="#3aa3bf"
       opacity="1.00"
       d=" M 707.16 317.63 C 708.43 316.25 709.71 314.87 711.00 313.51 C 711.95 314.68 712.87 315.88 713.80 317.08 C 713.47 318.69 712.04 320.46 713.11 322.05 C 714.98 325.34 717.28 328.36 719.20 331.62 C 718.59 331.97 717.38 332.66 716.77 333.00 C 714.79 327.23 711.38 322.02 707.16 317.63 Z"
       id="path95" />
    <path
       fill="#3aa3bf"
       opacity="1.00"
       d=" M 660.91 494.93 C 668.62 490.06 675.80 484.45 683.21 479.15 C 682.29 480.78 681.47 482.46 680.65 484.14 C 680.93 488.66 679.77 493.88 683.62 497.26 C 683.21 498.13 682.82 499.02 682.43 499.91 C 683.36 499.79 684.30 499.69 685.25 499.60 C 685.72 498.89 686.20 498.19 686.69 497.50 C 688.73 498.03 690.78 498.55 692.83 499.08 C 689.82 504.23 686.65 509.33 682.71 513.83 C 676.65 520.47 671.12 527.59 664.88 534.08 C 664.73 533.52 664.43 532.41 664.28 531.85 C 662.25 531.88 660.06 531.29 658.15 532.09 C 656.20 533.59 654.42 535.31 652.48 536.84 C 652.05 537.72 651.64 538.62 651.23 539.52 C 646.28 539.15 641.31 539.49 636.42 540.31 C 636.20 541.52 635.99 542.74 635.76 543.97 C 635.17 542.53 634.46 541.15 633.88 539.72 C 632.35 545.82 631.22 552.04 629.38 558.05 C 629.04 559.69 627.52 560.54 626.38 561.57 C 630.88 545.39 635.19 529.04 637.15 512.33 C 645.17 506.67 652.57 500.15 660.91 494.93 Z"
       id="path96" />
    <path
       fill="#3aa3bf"
       opacity="1.00"
       d=" M 428.55 595.48 C 444.60 595.18 460.66 595.26 476.71 595.49 C 473.18 596.04 469.60 596.40 466.02 596.27 C 459.43 596.10 452.83 596.58 446.24 596.17 C 447.95 597.22 450.12 597.91 451.10 599.81 C 454.44 606.38 458.07 612.83 460.72 619.73 C 465.35 619.90 469.96 620.70 474.06 622.97 C 483.60 627.47 494.01 623.49 503.99 624.28 C 508.37 624.03 512.03 626.70 516.06 627.90 C 521.64 629.63 527.46 630.80 532.66 633.58 C 535.05 634.86 537.43 636.39 540.21 636.66 C 546.07 637.34 551.95 635.95 557.83 636.58 C 547.85 639.57 537.35 640.31 527.02 641.33 C 505.34 642.47 483.46 641.77 462.05 638.03 C 451.53 635.61 440.63 634.66 430.48 630.78 C 421.88 627.45 412.42 625.93 404.82 620.42 C 407.79 621.10 411.50 622.64 414.04 620.08 C 416.43 618.43 416.36 615.33 416.79 612.78 C 417.94 612.17 419.10 611.58 420.27 611.00 C 421.12 607.34 421.58 603.60 421.75 599.86 C 420.91 599.06 420.09 598.28 419.26 597.51 C 422.39 597.00 425.49 596.30 428.55 595.48 Z"
       id="path97"
       style="filter:url(#filter105)" />
  </g>
  <g
     id="#606c7eff"
     style="opacity:0.22093662;filter:url(#filter108)">
    <path
       fill="#606c7e"
       opacity="1.00"
       d=" M 448.66 520.75 C 453.17 525.55 458.16 530.27 464.74 531.95 C 465.12 532.47 465.89 533.52 466.27 534.05 L 465.95 534.51 C 465.02 535.89 464.09 537.27 463.14 538.64 C 457.60 534.57 452.91 529.55 448.12 524.67 L 448.19 524.20 C 448.34 523.05 448.50 521.90 448.66 520.75 Z"
       id="path98" />
  </g>
  <circle
     style="fill:#000000;fill-opacity:1;stroke-width:1.60157;stroke-linecap:round;stroke-linejoin:round"
     id="path99"
     cx="261.1503"
     cy="813.74677"
     r="10.300591" />
  <circle
     style="fill:#000000;fill-opacity:1;stroke-width:1.60157;stroke-linecap:round;stroke-linejoin:round"
     id="circle99"
     cx="201.1503"
     cy="813.74677"
     r="10.300591" />
  <circle
     style="fill:#000000;fill-opacity:1;stroke-width:1.60157;stroke-linecap:round;stroke-linejoin:round"
     id="circle100"
     cx="741.15027"
     cy="813.74677"
     r="10.300591" />
  <circle
     style="fill:#000000;fill-opacity:1;stroke-width:1.60157;stroke-linecap:round;stroke-linejoin:round"
     id="circle101"
     cx="801.15027"
     cy="813.74677"
     r="10.300591" />
  <g
     id="g104"
     transform="translate(-7.5,4.5)">
    <g
       id="g103">
      <circle
         style="fill:#ffffff;fill-opacity:1;stroke:#000000;stroke-width:7.155;stroke-linecap:round;stroke-linejoin:round;stroke-dasharray:none"
         id="circle102"
         cx="710.2627"
         cy="616.85327"
         r="15.147928" />
    </g>
    <circle
       style="fill:#000000;fill-opacity:1;stroke-width:1.03631;stroke-linecap:round;stroke-linejoin:round"
       id="circle103"
       cx="710.2627"
       cy="616.85327"
       r="6.6650882" />
  </g>
</svg>
